<?xml version="1.0" encoding="UTF-8"?>
<svg xmlns="http://www.w3.org/2000/svg" xmlns:xlink="http://www.w3.org/1999/xlink"
     width="500" height="500" viewBox="-250.0 -250.0 500 500">
<defs>
</defs>
<path d="M-173.20508075688772,-50.0 L-216.50635094610965,-25.000000000000007 L-216.50635094610965,24.99999999999999 L-173.20508075688772,50.0 L-129.9038105676658,25.00000000000002 L-129.90381056766577,-24.999999999999968 Z" fill="#737373" stroke="black" stroke-width="3" />
<circle cx="-173.20508075688772" cy="-0.0" r="20.0" fill="#FFEDD0" />
<text x="-173.20508075688772" y="-0.0" font-size="23.5" font-family="Open Sans" fill="#000000" text-anchor="middle" dy="0.4em">10</text>
<path d="M-129.9038105676658,-125.0 L-173.20508075688772,-100.0 L-173.20508075688775,-50.000000000000014 L-129.9038105676658,-25.0 L-86.60254037844388,-49.99999999999998 L-86.60254037844385,-99.99999999999997 Z" fill="#a7c957" stroke="black" stroke-width="3" />
<circle cx="-129.9038105676658" cy="-75.0" r="20.0" fill="#FFEDD0" />
<text x="-129.9038105676658" y="-75.0" font-size="21.0" font-family="Open Sans" fill="#000000" text-anchor="middle" dy="0.4em">3</text>
<path d="M-86.60254037844386,-200.0 L-129.9038105676658,-175.0 L-129.9038105676658,-125.00000000000001 L-86.60254037844386,-100.0 L-43.301270189221945,-124.99999999999997 L-43.30127018922191,-174.99999999999997 Z" fill="#a7c957" stroke="black" stroke-width="3" />
<circle cx="-86.60254037844386" cy="-150.0" r="20.0" fill="#FFEDD0" />
<text x="-86.60254037844386" y="-150.0" font-size="21.0" font-family="Open Sans" fill="#000000" text-anchor="middle" dy="0.4em">11</text>
<path d="M-129.9038105676658,25.0 L-173.20508075688772,49.99999999999999 L-173.20508075688775,99.99999999999999 L-129.9038105676658,125.0 L-86.60254037844388,100.00000000000003 L-86.60254037844385,50.00000000000003 Z" fill="#20703D" stroke="black" stroke-width="3" />
<circle cx="-129.9038105676658" cy="75.0" r="20.0" fill="#FFEDD0" />
<text x="-129.9038105676658" y="75.0" font-size="28.5" font-family="Open Sans" fill="#E20303" text-anchor="middle" dy="0.4em">6</text>
<path d="M-86.60254037844386,-50.0 L-129.9038105676658,-25.000000000000007 L-129.9038105676658,24.99999999999999 L-86.60254037844386,50.0 L-43.301270189221945,25.00000000000002 L-43.30127018922191,-24.999999999999968 Z" fill="#DFB853" stroke="black" stroke-width="3" />
<circle cx="-86.60254037844386" cy="-0.0" r="20.0" fill="#FFEDD0" />
<text x="-86.60254037844386" y="-0.0" font-size="26.0" font-family="Open Sans" fill="#000000" text-anchor="middle" dy="0.4em">9</text>
<path d="M-43.30127018922193,-125.0 L-86.60254037844386,-100.0 L-86.60254037844388,-50.000000000000014 L-43.30127018922194,-25.0 L-1.4210854715202004e-14,-49.99999999999998 L2.1316282072803006e-14,-99.99999999999997 Z" fill="#20703D" stroke="black" stroke-width="3" />
<circle cx="-43.30127018922193" cy="-75.0" r="20.0" fill="#FFEDD0" />
<text x="-43.30127018922193" y="-75.0" font-size="26.0" font-family="Open Sans" fill="#000000" text-anchor="middle" dy="0.4em">9</text>
<path d="M0.0,-200.0 L-43.30127018922193,-175.0 L-43.30127018922194,-125.00000000000001 L-6.123233995736766e-15,-100.0 L43.30127018922192,-124.99999999999997 L43.30127018922195,-174.99999999999997 Z" fill="#DCBB96" stroke="black" stroke-width="3" />
<path d="M-86.60254037844386,100.0 L-129.9038105676658,125.0 L-129.9038105676658,175.0 L-86.60254037844386,200.0 L-43.301270189221945,175.00000000000003 L-43.30127018922191,125.00000000000003 Z" fill="#737373" stroke="black" stroke-width="3" />
<circle cx="-86.60254037844386" cy="150.0" r="20.0" fill="#FFEDD0" />
<text x="-86.60254037844386" y="150.0" font-size="21.0" font-family="Open Sans" fill="#000000" text-anchor="middle" dy="0.4em">11</text>
<path d="M-43.30127018922193,25.0 L-86.60254037844386,49.99999999999999 L-86.60254037844388,99.99999999999999 L-43.30127018922194,125.0 L-1.4210854715202004e-14,100.00000000000003 L2.1316282072803006e-14,50.00000000000003 Z" fill="#DFB853" stroke="black" stroke-width="3" />
<circle cx="-43.30127018922193" cy="75.0" r="20.0" fill="#FFEDD0" />
<text x="-43.30127018922193" y="75.0" font-size="18.5" font-family="Open Sans" fill="#000000" text-anchor="middle" dy="0.4em">2</text>
<path d="M0.0,-50.0 L-43.30127018922193,-25.000000000000007 L-43.30127018922194,24.99999999999999 L-6.123233995736766e-15,50.0 L43.30127018922192,25.00000000000002 L43.30127018922195,-24.999999999999968 Z" fill="#a7c957" stroke="black" stroke-width="3" />
<circle cx="0.0" cy="-0.0" r="20.0" fill="#FFEDD0" />
<text x="0.0" y="-0.0" font-size="26.0" font-family="Open Sans" fill="#000000" text-anchor="middle" dy="0.4em">5</text>
<path d="M43.30127018922193,-125.0 L0.0,-100.0 L-7.105427357601002e-15,-50.000000000000014 L43.301270189221924,-25.0 L86.60254037844385,-49.99999999999998 L86.60254037844388,-99.99999999999997 Z" fill="#C37C3A" stroke="black" stroke-width="3" />
<circle cx="43.30127018922193" cy="-75.0" r="20.0" fill="#FFEDD0" />
<text x="43.30127018922193" y="-75.0" font-size="23.5" font-family="Open Sans" fill="#000000" text-anchor="middle" dy="0.4em">4</text>
<path d="M86.60254037844386,-200.0 L43.30127018922193,-175.0 L43.301270189221924,-125.00000000000001 L86.60254037844386,-100.0 L129.90381056766577,-124.99999999999997 L129.9038105676658,-174.99999999999997 Z" fill="#737373" stroke="black" stroke-width="3" />
<circle cx="86.60254037844386" cy="-150.0" r="20.0" fill="#FFEDD0" />
<text x="86.60254037844386" y="-150.0" font-size="28.5" font-family="Open Sans" fill="#E20303" text-anchor="middle" dy="0.4em">8</text>
<path d="M0.0,100.0 L-43.30127018922193,125.0 L-43.30127018922194,175.0 L-6.123233995736766e-15,200.0 L43.30127018922192,175.00000000000003 L43.30127018922195,125.00000000000003 Z" fill="#20703D" stroke="black" stroke-width="3" />
<circle cx="0.0" cy="150.0" r="20.0" fill="#FFEDD0" />
<text x="0.0" y="150.0" font-size="28.5" font-family="Open Sans" fill="#E20303" text-anchor="middle" dy="0.4em">8</text>
<path d="M43.30127018922193,25.0 L0.0,49.99999999999999 L-7.105427357601002e-15,99.99999999999999 L43.301270189221924,125.0 L86.60254037844385,100.00000000000003 L86.60254037844388,50.00000000000003 Z" fill="#C37C3A" stroke="black" stroke-width="3" />
<circle cx="43.30127018922193" cy="75.0" r="20.0" fill="#FFEDD0" />
<text x="43.30127018922193" y="75.0" font-size="18.5" font-family="Open Sans" fill="#000000" text-anchor="middle" dy="0.4em">12</text>
<path d="M86.60254037844386,-50.0 L43.30127018922193,-25.000000000000007 L43.301270189221924,24.99999999999999 L86.60254037844386,50.0 L129.90381056766577,25.00000000000002 L129.9038105676658,-24.999999999999968 Z" fill="#20703D" stroke="black" stroke-width="3" />
<circle cx="86.60254037844386" cy="-0.0" r="20.0" fill="#FFEDD0" />
<text x="86.60254037844386" y="-0.0" font-size="26.0" font-family="Open Sans" fill="#000000" text-anchor="middle" dy="0.4em">5</text>
<path d="M129.9038105676658,-125.0 L86.60254037844388,-100.0 L86.60254037844386,-50.000000000000014 L129.9038105676658,-25.0 L173.20508075688772,-49.99999999999998 L173.20508075688775,-99.99999999999997 Z" fill="#C37C3A" stroke="black" stroke-width="3" />
<circle cx="129.9038105676658" cy="-75.0" r="20.0" fill="#FFEDD0" />
<text x="129.9038105676658" y="-75.0" font-size="21.0" font-family="Open Sans" fill="#000000" text-anchor="middle" dy="0.4em">3</text>
<path d="M86.60254037844386,100.0 L43.30127018922193,125.0 L43.301270189221924,175.0 L86.60254037844386,200.0 L129.90381056766577,175.00000000000003 L129.9038105676658,125.00000000000003 Z" fill="#DFB853" stroke="black" stroke-width="3" />
<circle cx="86.60254037844386" cy="150.0" r="20.0" fill="#FFEDD0" />
<text x="86.60254037844386" y="150.0" font-size="28.5" font-family="Open Sans" fill="#E20303" text-anchor="middle" dy="0.4em">6</text>
<path d="M129.9038105676658,25.0 L86.60254037844388,49.99999999999999 L86.60254037844386,99.99999999999999 L129.9038105676658,125.0 L173.20508075688772,100.00000000000003 L173.20508075688775,50.00000000000003 Z" fill="#a7c957" stroke="black" stroke-width="3" />
<circle cx="129.9038105676658" cy="75.0" r="20.0" fill="#FFEDD0" />
<text x="129.9038105676658" y="75.0" font-size="23.5" font-family="Open Sans" fill="#000000" text-anchor="middle" dy="0.4em">4</text>
<path d="M173.20508075688772,-50.0 L129.9038105676658,-25.000000000000007 L129.9038105676658,24.99999999999999 L173.20508075688772,50.0 L216.50635094610965,25.00000000000002 L216.50635094610968,-24.999999999999968 Z" fill="#DFB853" stroke="black" stroke-width="3" />
<circle cx="173.20508075688772" cy="-0.0" r="20.0" fill="#FFEDD0" />
<text x="173.20508075688772" y="-0.0" font-size="23.5" font-family="Open Sans" fill="#000000" text-anchor="middle" dy="0.4em">10</text>
</svg>