<?xml version="1.0" encoding="UTF-8"?>
<svg xmlns="http://www.w3.org/2000/svg" xmlns:xlink="http://www.w3.org/1999/xlink"
     width="720.0" height="720.0" viewBox="-300.0 -300.0 600 600">
<defs>
</defs>
<path d="M-144.99999999999997,-251.14736709748723 L-290.0,-4.263256414560601e-14 L-145.00000000000006,251.14736709748718 L144.99999999999994,251.14736709748726 L290.0,1.8474111129762605e-13 L145.00000000000023,-251.1473670974871 Z" fill="#B9E3F3" stroke="#100C08" stroke-width="3" />
<path d="M-173.20508075688772,-50.0 L-216.50635094610965,-25.000000000000007 L-216.50635094610965,24.99999999999999 L-173.20508075688772,50.0 L-129.9038105676658,25.00000000000002 L-129.90381056766577,-24.999999999999968 Z" fill="#DFB853" stroke="#100C08" stroke-width="3" coords="(-2, 0)" />
<path d="M-129.9038105676658,-125.0 L-173.20508075688772,-100.0 L-173.20508075688775,-50.000000000000014 L-129.9038105676658,-25.0 L-86.60254037844388,-49.99999999999998 L-86.60254037844385,-99.99999999999997 Z" fill="#C37C3A" stroke="#100C08" stroke-width="3" coords="(-2, 1)" />
<path d="M-86.60254037844386,-200.0 L-129.9038105676658,-175.0 L-129.9038105676658,-125.00000000000001 L-86.60254037844386,-100.0 L-43.301270189221945,-124.99999999999997 L-43.30127018922191,-174.99999999999997 Z" fill="#20703D" stroke="#100C08" stroke-width="3" coords="(-2, 2)" />
<path d="M-129.9038105676658,25.0 L-173.20508075688772,49.99999999999999 L-173.20508075688775,99.99999999999999 L-129.9038105676658,125.0 L-86.60254037844388,100.00000000000003 L-86.60254037844385,50.00000000000003 Z" fill="#A7C957" stroke="#100C08" stroke-width="3" coords="(-1, -1)" />
<path d="M-86.60254037844386,-50.0 L-129.9038105676658,-25.000000000000007 L-129.9038105676658,24.99999999999999 L-86.60254037844386,50.0 L-43.301270189221945,25.00000000000002 L-43.30127018922191,-24.999999999999968 Z" fill="#A7C957" stroke="#100C08" stroke-width="3" coords="(-1, 0)" />
<path d="M-43.30127018922193,-125.0 L-86.60254037844386,-100.0 L-86.60254037844388,-50.000000000000014 L-43.30127018922194,-25.0 L-1.4210854715202004e-14,-49.99999999999998 L2.1316282072803006e-14,-99.99999999999997 Z" fill="#969696" stroke="#100C08" stroke-width="3" coords="(-1, 1)" />
<path d="M0.0,-200.0 L-43.30127018922193,-175.0 L-43.30127018922194,-125.00000000000001 L-6.123233995736766e-15,-100.0 L43.30127018922192,-124.99999999999997 L43.30127018922195,-174.99999999999997 Z" fill="#20703D" stroke="#100C08" stroke-width="3" coords="(-1, 2)" />
<path d="M-86.60254037844386,100.0 L-129.9038105676658,125.0 L-129.9038105676658,175.0 L-86.60254037844386,200.0 L-43.301270189221945,175.00000000000003 L-43.30127018922191,125.00000000000003 Z" fill="#DFB853" stroke="#100C08" stroke-width="3" coords="(0, -2)" />
<path d="M-43.30127018922193,25.0 L-86.60254037844386,49.99999999999999 L-86.60254037844388,99.99999999999999 L-43.30127018922194,125.0 L-1.4210854715202004e-14,100.00000000000003 L2.1316282072803006e-14,50.00000000000003 Z" fill="#969696" stroke="#100C08" stroke-width="3" coords="(0, -1)" />
<path d="M0.0,-50.0 L-43.30127018922193,-25.000000000000007 L-43.30127018922194,24.99999999999999 L-6.123233995736766e-15,50.0 L43.30127018922192,25.00000000000002 L43.30127018922195,-24.999999999999968 Z" fill="#DCBB96" stroke="#100C08" stroke-width="3" coords="(0, 0)" />
<path d="M43.30127018922193,-125.0 L0.0,-100.0 L-7.105427357601002e-15,-50.000000000000014 L43.301270189221924,-25.0 L86.60254037844385,-49.99999999999998 L86.60254037844388,-99.99999999999997 Z" fill="#DFB853" stroke="#100C08" stroke-width="3" coords="(0, 1)" />
<path d="M86.60254037844386,-200.0 L43.30127018922193,-175.0 L43.301270189221924,-125.00000000000001 L86.60254037844386,-100.0 L129.90381056766577,-124.99999999999997 L129.9038105676658,-174.99999999999997 Z" fill="#C37C3A" stroke="#100C08" stroke-width="3" coords="(0, 2)" />
<path d="M0.0,100.0 L-43.30127018922193,125.0 L-43.30127018922194,175.0 L-6.123233995736766e-15,200.0 L43.30127018922192,175.00000000000003 L43.30127018922195,125.00000000000003 Z" fill="#20703D" stroke="#100C08" stroke-width="3" coords="(1, -2)" />
<path d="M43.30127018922193,25.0 L0.0,49.99999999999999 L-7.105427357601002e-15,99.99999999999999 L43.301270189221924,125.0 L86.60254037844385,100.00000000000003 L86.60254037844388,50.00000000000003 Z" fill="#20703D" stroke="#100C08" stroke-width="3" coords="(1, -1)" />
<path d="M86.60254037844386,-50.0 L43.30127018922193,-25.000000000000007 L43.301270189221924,24.99999999999999 L86.60254037844386,50.0 L129.90381056766577,25.00000000000002 L129.9038105676658,-24.999999999999968 Z" fill="#A7C957" stroke="#100C08" stroke-width="3" coords="(1, 0)" />
<path d="M129.9038105676658,-125.0 L86.60254037844388,-100.0 L86.60254037844386,-50.000000000000014 L129.9038105676658,-25.0 L173.20508075688772,-49.99999999999998 L173.20508075688775,-99.99999999999997 Z" fill="#A7C957" stroke="#100C08" stroke-width="3" coords="(1, 1)" />
<path d="M86.60254037844386,100.0 L43.30127018922193,125.0 L43.301270189221924,175.0 L86.60254037844386,200.0 L129.90381056766577,175.00000000000003 L129.9038105676658,125.00000000000003 Z" fill="#C37C3A" stroke="#100C08" stroke-width="3" coords="(2, -2)" />
<path d="M129.9038105676658,25.0 L86.60254037844388,49.99999999999999 L86.60254037844386,99.99999999999999 L129.9038105676658,125.0 L173.20508075688772,100.00000000000003 L173.20508075688775,50.00000000000003 Z" fill="#969696" stroke="#100C08" stroke-width="3" coords="(2, -1)" />
<path d="M173.20508075688772,-50.0 L129.9038105676658,-25.000000000000007 L129.9038105676658,24.99999999999999 L173.20508075688772,50.0 L216.50635094610965,25.00000000000002 L216.50635094610968,-24.999999999999968 Z" fill="#DFB853" stroke="#100C08" stroke-width="3" coords="(2, 0)" />
<path d="M43.30127018922193,-175.0 L43.30127018922194,-225.0" stroke="black" stroke-width="3" stroke-opacity="0.5" />
<path d="M7.105427357601002e-15,-200.0 L43.30127018922194,-225.0" stroke="black" stroke-width="3" stroke-opacity="0.5" />
<path d="M-86.60254037844385,-200.0 L-129.9038105676658,-225.0" stroke="black" stroke-width="3" stroke-opacity="0.5" />
<path d="M-129.9038105676658,-175.0 L-129.9038105676658,-225.0" stroke="black" stroke-width="3" stroke-opacity="0.5" />
<path d="M-173.20508075688772,-100.0 L-216.50635094610965,-75.0" stroke="black" stroke-width="3" stroke-opacity="0.5" />
<path d="M-173.20508075688772,-50.0 L-216.50635094610965,-75.0" stroke="black" stroke-width="3" stroke-opacity="0.5" />
<path d="M-173.20508075688772,50.0 L-216.50635094610965,75.0" stroke="black" stroke-width="3" stroke-opacity="0.5" />
<path d="M-173.20508075688772,100.0 L-216.50635094610965,75.0" stroke="black" stroke-width="3" stroke-opacity="0.5" />
<path d="M-129.90381056766577,175.0 L-129.9038105676658,224.99999999999997" stroke="black" stroke-width="3" stroke-opacity="0.5" />
<path d="M-86.60254037844386,200.0 L-129.9038105676658,224.99999999999997" stroke="black" stroke-width="3" stroke-opacity="0.5" />
<path d="M-7.105427357601002e-15,200.0 L43.301270189221924,225.0" stroke="black" stroke-width="3" stroke-opacity="0.5" />
<path d="M43.301270189221924,175.0 L43.301270189221924,225.0" stroke="black" stroke-width="3" stroke-opacity="0.5" />
<path d="M129.9038105676658,125.0 L173.20508075688772,150.0" stroke="black" stroke-width="3" stroke-opacity="0.5" />
<path d="M173.20508075688772,100.0 L173.20508075688772,150.0" stroke="black" stroke-width="3" stroke-opacity="0.5" />
<path d="M216.50635094610968,25.0 L259.8076211353316,7.105427357601002e-15" stroke="black" stroke-width="3" stroke-opacity="0.5" />
<path d="M216.50635094610968,-25.0 L259.8076211353316,7.105427357601002e-15" stroke="black" stroke-width="3" stroke-opacity="0.5" />
<path d="M173.20508075688772,-100.0 L173.20508075688775,-150.0" stroke="black" stroke-width="3" stroke-opacity="0.5" />
<path d="M129.9038105676658,-125.0 L173.20508075688775,-150.0" stroke="black" stroke-width="3" stroke-opacity="0.5" />
<circle cx="-173.20508075688772" cy="-0.0" r="25" fill="#FFEDD0" />
<circle cx="-129.9038105676658" cy="-75.0" r="25" fill="#FFEDD0" />
<circle cx="-86.60254037844386" cy="-150.0" r="25" fill="#FFEDD0" />
<circle cx="-129.9038105676658" cy="75.0" r="25" fill="#FFEDD0" />
<circle cx="-86.60254037844386" cy="-0.0" r="25" fill="#FFEDD0" />
<circle cx="-43.30127018922193" cy="-75.0" r="25" fill="#FFEDD0" />
<circle cx="0.0" cy="-150.0" r="25" fill="#FFEDD0" />
<circle cx="-86.60254037844386" cy="150.0" r="25" fill="#FFEDD0" />
<circle cx="-43.30127018922193" cy="75.0" r="25" fill="#FFEDD0" />
<circle cx="43.30127018922193" cy="-75.0" r="25" fill="#FFEDD0" />
<circle cx="86.60254037844386" cy="-150.0" r="25" fill="#FFEDD0" />
<circle cx="0.0" cy="150.0" r="25" fill="#FFEDD0" />
<circle cx="43.30127018922193" cy="75.0" r="25" fill="#FFEDD0" />
<circle cx="86.60254037844386" cy="-0.0" r="25" fill="#FFEDD0" />
<circle cx="129.9038105676658" cy="-75.0" r="25" fill="#FFEDD0" />
<circle cx="86.60254037844386" cy="150.0" r="25" fill="#FFEDD0" />
<circle cx="129.9038105676658" cy="75.0" r="25" fill="#FFEDD0" />
<circle cx="173.20508075688772" cy="-0.0" r="25" fill="#FFEDD0" />
<text x="-173.20508075688772" y="-3.0" font-size="23.5" font-family="Open Sans" fill="#100C08" font-weight="bold" text-anchor="middle" dy="0.4em">4</text>
<circle cx="-173.20508075688772" cy="15.0" r="1.6" fill="#100C08" />
<circle cx="-168.4050807568877" cy="15.0" r="1.6" fill="#100C08" />
<circle cx="-178.00508075688774" cy="15.0" r="1.6" fill="#100C08" />
<text x="-129.9038105676658" y="-78.0" font-size="21.0" font-family="Open Sans" fill="#100C08" font-weight="bold" text-anchor="middle" dy="0.4em">11</text>
<circle cx="-127.5038105676658" cy="-60.0" r="1.6" fill="#100C08" />
<circle cx="-132.3038105676658" cy="-60.0" r="1.6" fill="#100C08" />
<text x="-86.60254037844386" y="-153.0" font-size="26.0" font-family="Open Sans" fill="#100C08" font-weight="bold" text-anchor="middle" dy="0.4em">5</text>
<circle cx="-84.20254037844386" cy="-135.0" r="1.6" fill="#100C08" />
<circle cx="-89.00254037844387" cy="-135.0" r="1.6" fill="#100C08" />
<circle cx="-79.40254037844386" cy="-135.0" r="1.6" fill="#100C08" />
<circle cx="-93.80254037844387" cy="-135.0" r="1.6" fill="#100C08" />
<text x="-129.9038105676658" y="72.0" font-size="26.0" font-family="Open Sans" fill="#100C08" font-weight="bold" text-anchor="middle" dy="0.4em">9</text>
<circle cx="-127.5038105676658" cy="90.0" r="1.6" fill="#100C08" />
<circle cx="-132.3038105676658" cy="90.0" r="1.6" fill="#100C08" />
<circle cx="-122.7038105676658" cy="90.0" r="1.6" fill="#100C08" />
<circle cx="-137.1038105676658" cy="90.0" r="1.6" fill="#100C08" />
<text x="-86.60254037844386" y="-3.0" font-size="23.5" font-family="Open Sans" fill="#100C08" font-weight="bold" text-anchor="middle" dy="0.4em">10</text>
<circle cx="-86.60254037844386" cy="15.0" r="1.6" fill="#100C08" />
<circle cx="-81.80254037844387" cy="15.0" r="1.6" fill="#100C08" />
<circle cx="-91.40254037844386" cy="15.0" r="1.6" fill="#100C08" />
<text x="-43.30127018922193" y="-78.0" font-size="21.0" font-family="Open Sans" fill="#100C08" font-weight="bold" text-anchor="middle" dy="0.4em">3</text>
<circle cx="-40.90127018922193" cy="-60.0" r="1.6" fill="#100C08" />
<circle cx="-45.70127018922193" cy="-60.0" r="1.6" fill="#100C08" />
<text x="0.0" y="-153.0" font-size="18.5" font-family="Open Sans" fill="#100C08" font-weight="bold" text-anchor="middle" dy="0.4em">2</text>
<circle cx="0.0" cy="-135.0" r="1.6" fill="#100C08" />
<text x="-86.60254037844386" y="147.0" font-size="26.0" font-family="Open Sans" fill="#100C08" font-weight="bold" text-anchor="middle" dy="0.4em">9</text>
<circle cx="-84.20254037844386" cy="165.0" r="1.6" fill="#100C08" />
<circle cx="-89.00254037844387" cy="165.0" r="1.6" fill="#100C08" />
<circle cx="-79.40254037844386" cy="165.0" r="1.6" fill="#100C08" />
<circle cx="-93.80254037844387" cy="165.0" r="1.6" fill="#100C08" />
<text x="-43.30127018922193" y="72.0" font-size="23.5" font-family="Open Sans" fill="#100C08" font-weight="bold" text-anchor="middle" dy="0.4em">4</text>
<circle cx="-43.30127018922193" cy="90.0" r="1.6" fill="#100C08" />
<circle cx="-38.50127018922193" cy="90.0" r="1.6" fill="#100C08" />
<circle cx="-48.101270189221935" cy="90.0" r="1.6" fill="#100C08" />
<text x="43.30127018922193" y="-78.0" font-size="28.5" font-family="Open Sans" fill="#BD0000" font-weight="bold" text-anchor="middle" dy="0.4em">8</text>
<circle cx="43.30127018922193" cy="-60.0" r="1.6" fill="#BD0000" />
<circle cx="48.101270189221935" cy="-60.0" r="1.6" fill="#BD0000" />
<circle cx="38.50127018922193" cy="-60.0" r="1.6" fill="#BD0000" />
<circle cx="52.90127018922193" cy="-60.0" r="1.6" fill="#BD0000" />
<circle cx="33.70127018922193" cy="-60.0" r="1.6" fill="#BD0000" />
<text x="86.60254037844386" y="-153.0" font-size="23.5" font-family="Open Sans" fill="#100C08" font-weight="bold" text-anchor="middle" dy="0.4em">10</text>
<circle cx="86.60254037844386" cy="-135.0" r="1.6" fill="#100C08" />
<circle cx="91.40254037844386" cy="-135.0" r="1.6" fill="#100C08" />
<circle cx="81.80254037844387" cy="-135.0" r="1.6" fill="#100C08" />
<text x="0.0" y="147.0" font-size="28.5" font-family="Open Sans" fill="#BD0000" font-weight="bold" text-anchor="middle" dy="0.4em">6</text>
<circle cx="0.0" cy="165.0" r="1.6" fill="#BD0000" />
<circle cx="4.800000000000001" cy="165.0" r="1.6" fill="#BD0000" />
<circle cx="-4.800000000000001" cy="165.0" r="1.6" fill="#BD0000" />
<circle cx="9.600000000000001" cy="165.0" r="1.6" fill="#BD0000" />
<circle cx="-9.600000000000001" cy="165.0" r="1.6" fill="#BD0000" />
<text x="43.30127018922193" y="72.0" font-size="28.5" font-family="Open Sans" fill="#BD0000" font-weight="bold" text-anchor="middle" dy="0.4em">8</text>
<circle cx="43.30127018922193" cy="90.0" r="1.6" fill="#BD0000" />
<circle cx="48.101270189221935" cy="90.0" r="1.6" fill="#BD0000" />
<circle cx="38.50127018922193" cy="90.0" r="1.6" fill="#BD0000" />
<circle cx="52.90127018922193" cy="90.0" r="1.6" fill="#BD0000" />
<circle cx="33.70127018922193" cy="90.0" r="1.6" fill="#BD0000" />
<text x="86.60254037844386" y="-3.0" font-size="26.0" font-family="Open Sans" fill="#100C08" font-weight="bold" text-anchor="middle" dy="0.4em">5</text>
<circle cx="89.00254037844387" cy="15.0" r="1.6" fill="#100C08" />
<circle cx="84.20254037844386" cy="15.0" r="1.6" fill="#100C08" />
<circle cx="93.80254037844387" cy="15.0" r="1.6" fill="#100C08" />
<circle cx="79.40254037844386" cy="15.0" r="1.6" fill="#100C08" />
<text x="129.9038105676658" y="-78.0" font-size="21.0" font-family="Open Sans" fill="#100C08" font-weight="bold" text-anchor="middle" dy="0.4em">11</text>
<circle cx="132.3038105676658" cy="-60.0" r="1.6" fill="#100C08" />
<circle cx="127.5038105676658" cy="-60.0" r="1.6" fill="#100C08" />
<text x="86.60254037844386" y="147.0" font-size="18.5" font-family="Open Sans" fill="#100C08" font-weight="bold" text-anchor="middle" dy="0.4em">12</text>
<circle cx="86.60254037844386" cy="165.0" r="1.6" fill="#100C08" />
<text x="129.9038105676658" y="72.0" font-size="28.5" font-family="Open Sans" fill="#BD0000" font-weight="bold" text-anchor="middle" dy="0.4em">6</text>
<circle cx="129.9038105676658" cy="90.0" r="1.6" fill="#BD0000" />
<circle cx="134.7038105676658" cy="90.0" r="1.6" fill="#BD0000" />
<circle cx="125.1038105676658" cy="90.0" r="1.6" fill="#BD0000" />
<circle cx="139.5038105676658" cy="90.0" r="1.6" fill="#BD0000" />
<circle cx="120.3038105676658" cy="90.0" r="1.6" fill="#BD0000" />
<text x="173.20508075688772" y="-3.0" font-size="21.0" font-family="Open Sans" fill="#100C08" font-weight="bold" text-anchor="middle" dy="0.4em">3</text>
<circle cx="175.60508075688773" cy="15.0" r="1.6" fill="#100C08" />
<circle cx="170.80508075688772" cy="15.0" r="1.6" fill="#100C08" />
<circle cx="43.30127018922194" cy="-225.0" r="13" fill="#FFEDD0" fill-opacity="1" stroke="#A86B32" stroke-width="4" />
<circle cx="-129.9038105676658" cy="-225.0" r="13" fill="#FFEDD0" fill-opacity="1" stroke="#D9A82E" stroke-width="4" />
<circle cx="-216.50635094610965" cy="-75.0" r="13" fill="#FFEDD0" fill-opacity="1" stroke="#93B93C" stroke-width="4" />
<circle cx="-216.50635094610965" cy="75.0" r="13" fill="#FFEDD0" fill-opacity="1" stroke="#2A1B0D" stroke-width="4" />
<circle cx="-129.9038105676658" cy="224.99999999999997" r="13" fill="#FFEDD0" fill-opacity="1" stroke="#2A1B0D" stroke-width="4" />
<circle cx="43.301270189221924" cy="225.0" r="13" fill="#FFEDD0" fill-opacity="1" stroke="#2A1B0D" stroke-width="4" />
<circle cx="173.20508075688772" cy="150.0" r="13" fill="#FFEDD0" fill-opacity="1" stroke="#969696" stroke-width="4" />
<circle cx="259.8076211353316" cy="7.105427357601002e-15" r="13" fill="#FFEDD0" fill-opacity="1" stroke="#2A1B0D" stroke-width="4" />
<circle cx="173.20508075688775" cy="-150.0" r="13" fill="#FFEDD0" fill-opacity="1" stroke="#1B5F34" stroke-width="4" />
<text x="43.30127018922194" y="-225.0" font-size="12" fill="#A86B32" font-family="Open Sans" font-weight="bold" text-anchor="middle" dy="0.4em">2:1</text>
<text x="-129.9038105676658" y="-225.0" font-size="12" fill="#D9A82E" font-family="Open Sans" font-weight="bold" text-anchor="middle" dy="0.4em">2:1</text>
<text x="-216.50635094610965" y="-75.0" font-size="12" fill="#93B93C" font-family="Open Sans" font-weight="bold" text-anchor="middle" dy="0.4em">2:1</text>
<text x="-216.50635094610965" y="75.0" font-size="12" fill="#2A1B0D" font-family="Open Sans" font-weight="bold" text-anchor="middle" dy="0.4em">2:1</text>
<text x="-129.9038105676658" y="224.99999999999997" font-size="12" fill="#2A1B0D" font-family="Open Sans" font-weight="bold" text-anchor="middle" dy="0.4em">2:1</text>
<text x="43.301270189221924" y="225.0" font-size="12" fill="#2A1B0D" font-family="Open Sans" font-weight="bold" text-anchor="middle" dy="0.4em">2:1</text>
<text x="173.20508075688772" y="150.0" font-size="12" fill="#969696" font-family="Open Sans" font-weight="bold" text-anchor="middle" dy="0.4em">2:1</text>
<text x="259.8076211353316" y="7.105427357601002e-15" font-size="12" fill="#2A1B0D" font-family="Open Sans" font-weight="bold" text-anchor="middle" dy="0.4em">2:1</text>
<text x="173.20508075688775" y="-150.0" font-size="12" fill="#1B5F34" font-family="Open Sans" font-weight="bold" text-anchor="middle" dy="0.4em">2:1</text>
</svg>